<svg id="Layer_1" data-name="Layer 1" xmlns="http://www.w3.org/2000/svg" viewBox="0 0 586.17 129.82"><defs><style>.cls-1,.cls-10,.cls-12{fill:#004789;}.cls-2{fill:#febd16;}.cls-3{fill:#0a93a6;}.cls-4{fill:#0a6444;}.cls-5{fill:#f3802b;}.cls-6{fill:#a5c034;}.cls-7{fill:#5a5848;}.cls-8{fill:#ed1f28;}.cls-9{fill:#fefefe;}.cls-10{font-size:27.07px;font-family:Avenir-Medium, Avenir;}.cls-11{letter-spacing:-0.11em;}.cls-12{stroke:#004789;stroke-miterlimit:10;stroke-width:3px;}</style></defs><title>header</title><path class="cls-1" d="M22.56,31.79c0,14.9.07,29.3-.06,43.71,0,2.86,1.16,3.23,3.54,3.18,2,0,4.69-1.23,4.73,2.86,0,4.36-2.87,3.07-5,3.11-5.21.11-10.43-.07-15.63.08-2.34.07-3.24-.57-3.2-3.05,0-2.31.58-3.54,3.07-3.05,4.12.8,4.62-1.29,4.58-4.84-.19-14.25-.17-28.51,0-42.77,0-3.09-.54-4.59-3.93-4.08-2.43.37-3.56-.71-3.69-3.35-.17-3.35,2-2.75,3.9-2.75,4.29,0,8.59.17,12.87-.06,2.88-.16,4.29.72,5.32,3.56C33.5,36.69,38.28,49,42.93,61.26a3.78,3.78,0,0,0,1.65,2.48c4.94-12.88,10-25.65,14.66-38.59,1.29-3.59,3-4.72,6.6-4.4a86.21,86.21,0,0,0,11.49,0c2.57-.12,3.4.69,3.42,3.34s-1.19,3.16-3.31,2.83c-3.57-.56-4.62.77-4.56,4.43.22,14.41.19,28.82,0,43.23,0,3.21.81,4.48,4.07,4,2-.28,3.77-.32,3.81,2.86.05,3.37-1.74,3.22-4,3.2-5.36-.06-10.73-.11-16.1,0-2.37.06-3.69-.3-3.64-3.18,0-2.56,1.09-3.31,3.32-2.92,4,.69,4.76-1.07,4.7-4.79C64.82,60,65,46.1,64.13,32c-.89,2.17-1.83,4.32-2.66,6.51C56.82,50.67,52.23,62.85,47.54,75c-.7,1.82-.64,4.32-3.85,4.28-3,0-2.84-2.39-3.49-4C35,62,29.92,48.68,24.79,35.4,24.36,34.31,24.27,33,22.56,31.79Z" transform="translate(-6.92 -4.57)"/><path class="cls-2" d="M129.84,36.75C118.91,35.3,115.5,27.34,121.38,19c1.18-1.68,2.2-2.67,3.62-.15,1.3,2.31,3.61,2.54,6,2.55,7.67,0,15.34-.09,23,.18,9.5.34,12.89,3.42,14.38,12.72a60.57,60.57,0,0,1,.67,9.15c.07,12.42,0,24.84.09,37.27,0,2.85-.54,4.07-3.73,4-14-.16-27.91-.11-41.87,0C121,84.71,120,84,120,81.32c.14-9.81.07-19.63.05-29.44a12.33,12.33,0,0,1,3.61-8.69C125.57,41.19,127.48,39.23,129.84,36.75Zm14.65,33.69c5.36,0,10.73,0,16.09,0,1.72,0,3-.22,2.94-2.43-.2-8,.5-15.93-.91-23.84-.76-4.28-3.13-6.81-7.53-7.45-5.8-.83-11.63-.27-17.44-.39a2.34,2.34,0,0,0-1.68.49c-3.94,5-9.59,8.94-9.94,16-.25,4.89,0,9.81-.14,14.71-.06,2.24.85,2.94,3,2.9C134.07,70.38,139.28,70.44,144.49,70.44Z" transform="translate(-6.92 -4.57)"/><path class="cls-1" d="M531.74,71.11c.81.64,1.26,1,1.75,1.38,4.61,3.32,5,4.89,2.57,9.62-2.08,4-4.57,4.86-9.68,2.84-10.28-4.07-16.51-12-19.9-22.18-1.14-3.44-2.73-4.55-6.19-4.29a103.38,103.38,0,0,1-12,0c-2.53-.1-3.6.66-3.46,3.35a102.62,102.62,0,0,1,0,11c-.18,3.36,1.15,3.1,3.42,1.89,2.57-1.36,5.23-2.58,7.9-3.74.89-.39,2.43-1.94,2.63.48.15,1.87,2.76,4.49,0,5.55a101.92,101.92,0,0,0-18.54,9c-1.44.92-2.16-.11-2.35-1.1-.32-1.68-3.73-2.67-1.23-4.92,2.06-1.86,2.24-4.27,2.23-6.75,0-16.26,0-32.53-.17-48.78,0-2.89.54-3.56,3.46-3.52q22.09.28,44.18,0c2.83,0,3.71.55,3.55,3.47-.26,5-.18,10.12,0,15.17.08,2.36-.49,3.23-3,3.11-4.9-.23-9.82.06-14.72-.2-3.1-.16-3.64,1-3.11,3.74,1.51,7.77-.08,6.81,7.68,6.83,4.91,0,9.83,0,14.71-.32,3.16-.23,2.44,1.66,2.62,3.44.23,2.3-.49,2.74-2.8,2.59-5.5-.35-11-.18-16.55-.37-2.72-.09-3.64.51-2.44,3.37A35,35,0,0,0,521,74.77C527.43,80.6,529.77,79.94,531.74,71.11Zm-46-44c-1.83,2.89-.57,6.07-.78,9.11-.13,1.82,1.52,1.56,2.69,1.56q16.49,0,33,0c1,0,2.59.29,2.57-1.15-.06-3.17,1.3-6.49-.72-9.51a.84.84,0,0,0-.85,0h-35A.85.85,0,0,0,485.78,27.13Zm8.77,26.25a56.28,56.28,0,0,1,6,0c3.34.36,3.74-1,3.2-4-1.22-6.72-1.08-6.75-8-6.75a38,38,0,0,1-6-.05c-4.22-.68-4.95,1.14-5,5-.08,4.44.82,6.66,5.69,5.76A22.83,22.83,0,0,1,494.55,53.38Z" transform="translate(-6.92 -4.57)"/><path class="cls-3" d="M196.14,20.83c4.5.25,9.85-.33,15.2.47,16,2.38,26.42,14.72,26.42,31.34,0,16.42-10.7,29.34-26.4,31.45-9.9,1.33-19.89.3-29.83.6-2.62.08-2.42-1.58-2.49-3.33s.49-3.09,2.55-2.71c5,.93,5.19-1.82,5.13-5.72-.2-13.94-.15-27.88,0-41.82,0-2.92-.31-4.75-3.84-4.21-2.36.36-4,.08-3.91-3.21s1.89-2.89,3.93-2.88C187,20.85,191.16,20.83,196.14,20.83ZM195,52.66q0,8.49,0,17c0,9.31,0,9.31,9.15,9,15.22-.58,25.36-11.17,25.24-26.38s-10-24.94-25.54-25.3c-1.68,0-3.39.15-5-.05-3-.35-4,.65-3.89,3.75C195.14,38,195,45.32,195,52.66Z" transform="translate(-6.92 -4.57)"/><path class="cls-4" d="M577.48,19c1.56,3.29,4.4,4.32,7.74,4.94,7.26,1.33,9.33,4.84,6.9,11.79-2.06,5.91-5.24,11.39-6.85,17.5a65.36,65.36,0,0,0-2.17,15c-.27,9.78-4.41,14.75-14,16.33-7.65,1.25-15.4,1.92-23,2.84-.19-.64-.28-.79-.26-.91,2.17-12.71,2.16-12.84,15-14.24,3.18-.34,3.73-1.53,3.5-4.34-.27-3.36-.84-6.61-3.81-8.45-6.36-4-7.37-9.77-6.13-16.39.54-2.91.12-4.49-3.06-5.73-5.46-2.13-7.08-12.66-3.08-17.25.81-.92,1.5-1.08,2.07.06,1.49,3,4.24,3.11,7,3.44,6.77.79,9.13,4,8.45,11-.21,2.14-1,3.23-3.26,3.67-4.91,1-6,3.75-3.28,8.09a2.79,2.79,0,0,0,.86,1.06c8.15,4.18,7.54,11.67,7.42,19.1,0,1.52-1.37,4.22,1.25,4.55s5.28-.3,6.58-3.16a10.47,10.47,0,0,0,.74-2.17,66.42,66.42,0,0,1,8.19-20.32c2.32-3.92,1.53-5.67-2.37-7C572.77,35.19,570.69,26.51,577.48,19Z" transform="translate(-6.92 -4.57)"/><path class="cls-5" d="M426.85,48.14c0,5.67-.13,11.35,0,17,.24,8.57,5.46,13.39,14.19,13.4s14-4.82,14.16-13.42c.2-11.49-.06-23,.14-34.49.06-3.26-1.24-3.94-4-3.66-2,.2-3.89.43-3.9-2.8s1.5-3.43,4-3.38c5.36.12,10.73.14,16.09,0,2.58-.07,3,1.13,3.05,3.34S470,27.41,467.7,27c-3.85-.71-4.1,1.44-4.06,4.49.14,10.57.18,21.15,0,31.73-.3,18.23-13.64,26-30.18,21.85-9.37-2.34-14.69-10-14.92-20.74-.23-10.88-.17-21.77,0-32.65,0-3.26-.32-5.42-4.34-4.69-2.53.46-2.58-1.25-2.62-3.1,0-2.06.56-3.11,2.86-3.07q8.73.15,17.47,0c2.54,0,2.5,1.46,2.59,3.28.1,2.12-.54,3.32-2.81,2.89-4.3-.83-5.14,1.21-4.92,5.06.31,5.35.08,10.73.08,16.09Z" transform="translate(-6.92 -4.57)"/><path class="cls-6" d="M355.26,22.4c1.05-2.21,2.45-1.61,3.56-1.62,12.72,0,25.45.07,38.17-.09,3.19,0,4.41.9,4.22,4.12s.88,6.52.22,9.72c-1.22,0-1.64-.41-1.76-1-1.49-7.76-7.26-9-13.81-9.21-12.55-.41-12.55-.43-12.55,12.09,0,3.07.2,6.15-.05,9.19-.28,3.31,1.1,4.13,4.2,4.15,5,0,10.12,0,15.09,1.21,7.69,1.93,12.69,7.46,13.12,14.65a16.94,16.94,0,0,1-11.45,17.49,29.78,29.78,0,0,1-9.93,1.65c-8.74.08-17.48.05-26.21.05-1,0-2.12.21-2.93-.64.14-.44.17-.92.32-1,8.45-2.12,8.66-2.36,8.67-11,0-12.11.06-24.22,0-36.33C364.09,29.5,365.74,22,355.26,22.4Zm18.07,44.9c0,3.67,0,7.35,0,11,0,1.21,0,2.29,1.55,2.88,8.35,3.12,19.18-3.53,20-12.36.91-10.35-9.53-18.59-19.58-15.57-1.79.54-2,1.55-1.95,3C373.35,60,373.33,63.63,373.33,67.3Z" transform="translate(-6.92 -4.57)"/><path class="cls-7" d="M338.49,27.14c-7.35,0-14.7,0-22-.18-2.13,0-3,.54-2.92,2.81.15,4.9.13,9.8,0,14.7-.06,2.28.89,2.88,3,2.83,4.9-.1,9.8,0,14.7,0,2.34,0,4.36-.4,4.42,3.33.06,4-2.08,3.64-4.63,3.61-4.59-.05-9.19.11-13.78-.06-2.71-.1-3.82.65-3.72,3.57.2,5.81.24,11.64,0,17.45-.13,3.07,1.15,3.5,3.76,3.44,7.35-.16,14.7-.09,22-.12,2.23-.32,1.85-2.06,1.87-3.53,0-3,0-6.09.06-9.14h4.56c0,4.28-.13,8.57.11,12.84.18,3.28-.74,4.63-4.31,4.57q-19.26-.28-38.52,0c-3.57.05-4.73-1.25-4.18-4.55,6.27-.25,6.25-.25,6.27-6.83q.06-22,.15-43.94l-.78-1-5.65,0c-.48-3.2.44-4.71,4.12-4.65q19.31.29,38.64,0c3.65-.06,4.27,1.43,4.32,4.64.05,3.41-1.2,7,.95,10.25-6.45,2.12-7.42,1.49-7.45-4.74,0-1.51-.11-3-.17-4.54C339.38,27.22,339,27.08,338.49,27.14Z" transform="translate(-6.92 -4.57)"/><path class="cls-8" d="M298,59.79c-4.78,17.48-17.48,26.78-34.16,25.48-11.12-.86-16.8-6.67-17.32-18.07-.4-8.75.59-17.46,1.1-26.18.2-3.37.56-6.72.82-10.08.5-6.35.13-6.83-5.89-7.74,2.41-3.89,5.41-4.53,10.8-2.19,3.64,1.59,5.92,3.58,4.38,8.35-3.8,11.8-4.18,24.12-4.25,36.37,0,7.89,3.71,11.39,11.59,11.85,12.33.72,22-4,29.19-14.09C295.14,62.28,295.62,60.49,298,59.79Z" transform="translate(-6.92 -4.57)"/><path class="cls-5" d="M109.66,21.71c-3.38,1.32-3.38,3.49-3.37,5.8.05,15.79,0,31.57,0,47.36,0,4.32-1.15,7.89-5.67,9.46-3,1-5.72,2.65-7.11-2.43-1-3.79-5.54-3.16-8.61-5.2a79.89,79.89,0,0,1,8.57.06c4,.43,4.83-1.26,4.78-5-.19-15.32.12-30.65-.2-46-.1-4.74,1.36-6,5.67-4.92C105.36,21.3,107.05,21.36,109.66,21.71Z" transform="translate(-6.92 -4.57)"/><path class="cls-7" d="M298.89,78.68c-.55,3.31.61,4.6,4.18,4.55q19.26-.28,38.52,0c3.57.05,4.5-1.29,4.31-4.57-.24-4.27-.09-8.56-.11-12.84,1.71-.06,1.45,1.23,1.46,2.23,0,4.58-.08,9.16.06,13.74.08,2.49-1,3.06-3.27,3.05-14.5-.08-29,0-43.51-.06-1.13,0-2.91.47-3-1.19S295.87,79.57,298.89,78.68Z" transform="translate(-6.92 -4.57)"/><path class="cls-7" d="M346.9,37.15c-2.15-3.23-.9-6.85-.95-10.25,0-3.21-.67-4.69-4.32-4.64q-19.31.29-38.64,0c-3.68-.06-4.6,1.46-4.12,4.65-3.15-.83-1.32-3.26-1.35-4.88s1.76-1.3,2.91-1.3c14.57,0,29.15,0,43.72,0,2,0,3.28.31,3.14,2.71C347,28,347.72,32.58,346.9,37.15Z" transform="translate(-6.92 -4.57)"/><path class="cls-7" d="M317,17c5.57-12.42,6.74-13.27,16.83-11.9C327.88,9,326,17.3,317,17Z" transform="translate(-6.92 -4.57)"/><path class="cls-5" d="M438,11.89c.75,3.32-.62,4.13-4,4.29-4.3.2-4-2-4.16-5-.19-3.35.82-4.29,4.27-4.44C438.42,6.59,438.34,8.87,438,11.89Z" transform="translate(-6.92 -4.57)"/><path class="cls-5" d="M452.33,11.74c1,3.92-1.09,4.15-4.21,4.35-4.13.27-3.72-2-3.88-4.75-.19-3.23.53-4.52,4.18-4.57C452.65,6.71,452.93,8.73,452.33,11.74Z" transform="translate(-6.92 -4.57)"/><path class="cls-7" d="M341.24,65.83c0,3,0,6.09-.06,9.14,0,1.47.36,3.21-1.87,3.53,0-3.33,0-6.66.13-10C339.47,67.32,338.85,65.51,341.24,65.83Z" transform="translate(-6.92 -4.57)"/><path class="cls-7" d="M304.53,26.94l.78,1Z" transform="translate(-6.92 -4.57)"/><path class="cls-7" d="M338.49,27.14c.55-.06.9.08.79.73Z" transform="translate(-6.92 -4.57)"/><path class="cls-9" d="M486.64,27.08c-.26.44-.55.46-.86,0A.85.85,0,0,1,486.64,27.08Z" transform="translate(-6.92 -4.57)"/><path class="cls-9" d="M522.52,27.13c-.31.41-.59.39-.85,0A.84.84,0,0,1,522.52,27.13Z" transform="translate(-6.92 -4.57)"/><text class="cls-10" transform="translate(190.79 118.75)">Language <tspan class="cls-11" x="127.9" y="0">T</tspan><tspan x="140.43" y="0">ables</tspan></text><line class="cls-12" x1="36.53" y1="110.86" x2="161.81" y2="109.91"/><line class="cls-12" x1="424.35" y1="107.91" x2="549.64" y2="106.96"/></svg>