<?xml version="1.0" standalone="no"?>
<!DOCTYPE svg PUBLIC "-//W3C//DTD SVG 20010904//EN"
 "http://www.w3.org/TR/2001/REC-SVG-20010904/DTD/svg10.dtd">
<svg version="1.0" xmlns="http://www.w3.org/2000/svg"
 width="180.000000pt" height="180.000000pt" viewBox="0 0 180.000000 180.000000"
 preserveAspectRatio="xMidYMid meet">
<metadata>
Created by potrace 1.11, written by Peter Selinger 2001-2013
</metadata>
<g transform="translate(0.000000,180.000000) scale(0.100000,-0.100000)"
fill="#000000" stroke="none">
<path d="M130 1337 c0 -482 2 -498 95 -682 115 -229 315 -421 587 -565 l92
-48 76 38 c322 162 569 427 667 715 l28 80 3 438 3 437 -775 0 -776 0 0 -413z
m1500 -18 c0 -416 -4 -453 -61 -592 -90 -218 -327 -457 -582 -588 l-84 -42
-88 47 c-259 138 -484 366 -574 583 -59 143 -61 164 -61 586 l0 387 725 0 725
0 0 -381z"/>
<path d="M222 1293 c2 -203 6 -373 10 -379 5 -8 38 -3 110 18 112 32 188 37
331 24 l87 -9 0 77 0 77 143 -3 142 -3 3 -76 3 -76 85 -6 c71 -4 96 -11 158
-41 72 -36 77 -37 172 -34 l98 3 8 30 c4 16 8 194 8 395 l1 365 -331 3 c-221
1 -330 -1 -330 -8 0 -6 5 -19 12 -30 10 -15 9 -24 -2 -44 -13 -25 -11 -28 28
-62 32 -27 44 -45 48 -75 4 -22 11 -42 15 -45 5 -3 9 -12 9 -20 0 -11 -23 -14
-126 -14 -96 0 -125 3 -122 13 2 6 10 34 17 60 10 34 25 57 54 82 38 33 40 36
27 61 -11 20 -12 29 -2 44 7 11 12 24 12 30 0 7 -116 10 -336 10 l-335 0 3
-367z m358 232 c14 -7 37 -26 52 -42 74 -78 63 -216 -22 -281 -171 -131 -394
79 -275 260 51 76 162 105 245 63z m698 -82 c7 -10 12 -49 12 -100 l0 -83 -32
20 c-18 11 -41 20 -50 20 -16 0 -18 11 -18 95 l0 95 38 -15 c20 -9 43 -23 50
-32z m152 -48 c0 -84 -2 -95 -17 -95 -10 0 -33 -9 -51 -20 l-33 -20 3 92 3 93
45 23 c24 12 46 22 47 22 2 0 3 -43 3 -95z m-278 -22 l3 -97 70 -42 c39 -24
75 -43 82 -43 7 -1 46 20 88 45 l75 45 0 95 c0 56 4 94 10 94 6 0 10 -40 10
-100 l0 -99 -85 -51 c-47 -27 -91 -50 -98 -50 -7 1 -48 22 -92 49 l-80 48 -3
101 c-2 63 1 102 7 102 6 0 11 -41 13 -97z m-137 -130 c0 -78 0 -78 28 -81 15
-2 27 -8 27 -13 0 -5 -69 -9 -165 -9 -103 0 -165 4 -165 10 0 6 11 10 25 10
25 0 25 1 25 80 l0 80 113 0 112 0 0 -77z"/>
<path d="M446 1498 c-23 -32 -20 -48 9 -48 22 0 25 4 25 35 0 40 -12 45 -34
13z"/>
<path d="M500 1485 c0 -32 2 -35 30 -35 35 0 37 8 9 44 -28 35 -39 33 -39 -9z"/>
<path d="M378 1480 l-33 -29 27 -1 c21 0 31 8 43 30 20 38 5 38 -37 0z"/>
<path d="M560 1505 c0 -23 27 -55 47 -55 31 0 29 14 -6 39 -29 21 -41 26 -41
16z"/>
<path d="M326 1408 c-11 -42 -7 -48 29 -48 28 0 35 4 35 19 0 11 3 26 6 35 5
13 -1 16 -29 16 -28 0 -36 -5 -41 -22z"/>
<path d="M417 1423 c-4 -3 -7 -19 -7 -35 0 -25 3 -28 35 -28 33 0 35 2 35 35
0 32 -3 35 -28 35 -16 0 -32 -3 -35 -7z"/>
<path d="M500 1395 c0 -34 1 -35 40 -35 41 0 45 5 34 48 -5 17 -14 22 -40 22
-32 0 -34 -2 -34 -35z"/>
<path d="M592 1398 c3 -30 6 -33 38 -33 29 0 35 3 32 20 -6 39 -12 45 -42 45
-29 0 -31 -2 -28 -32z"/>
<path d="M326 1341 c-4 -6 -4 -22 0 -36 5 -20 12 -25 39 -25 31 0 32 1 26 33
-5 25 -12 33 -33 35 -14 2 -29 -1 -32 -7z"/>
<path d="M417 1344 c-4 -4 -7 -20 -7 -36 0 -25 3 -28 36 -28 34 0 35 1 32 33
-2 26 -8 33 -28 35 -14 2 -29 0 -33 -4z"/>
<path d="M507 1343 c-4 -3 -7 -19 -7 -35 0 -25 3 -28 34 -28 28 0 35 4 40 25
4 14 4 30 1 35 -7 11 -58 13 -68 3z"/>
<path d="M602 1338 c-6 -6 -12 -22 -12 -35 0 -19 5 -23 30 -23 30 0 36 6 42
45 2 15 -3 21 -22 23 -14 2 -31 -3 -38 -10z"/>
<path d="M360 1252 c0 -13 44 -52 58 -52 9 0 8 8 -3 30 -14 27 -55 43 -55 22z"/>
<path d="M430 1247 c0 -17 29 -57 41 -57 5 0 9 16 9 35 0 31 -3 35 -25 35 -14
0 -25 -6 -25 -13z"/>
<path d="M500 1225 c0 -44 23 -47 45 -5 20 39 20 40 -15 40 -28 0 -30 -3 -30
-35z"/>
<path d="M571 1234 c-16 -36 -6 -42 26 -18 36 27 40 44 10 44 -16 0 -28 -8
-36 -26z"/>
<path d="M820 1244 c0 -73 24 -70 28 4 2 42 0 52 -12 52 -13 0 -16 -12 -16
-56z"/>
<path d="M870 1244 l0 -55 33 3 c31 3 32 4 35 56 l3 52 -35 0 -36 0 0 -56z"/>
<path d="M962 1248 c4 -74 28 -77 28 -4 0 44 -3 56 -16 56 -12 0 -14 -10 -12
-52z"/>
<path d="M891 1616 c-14 -17 -7 -36 14 -36 22 0 29 20 13 36 -13 13 -16 13
-27 0z"/>
<path d="M870 1020 l0 -60 35 0 35 0 0 60 0 60 -35 0 -35 0 0 -60z"/>
<path d="M700 900 c0 -19 7 -20 205 -20 198 0 205 1 205 20 0 19 -7 20 -205
20 -198 0 -205 -1 -205 -20z"/>
<path d="M750 790 l0 -60 155 0 155 0 0 60 0 60 -155 0 -155 0 0 -60z m270 0
c0 -19 -7 -20 -115 -20 -108 0 -115 1 -115 20 0 19 7 20 115 20 108 0 115 -1
115 -20z"/>
<path d="M536 694 c-159 -101 -166 -107 -151 -124 16 -18 24 -14 176 82 133
84 159 104 159 124 0 13 -4 24 -8 24 -4 0 -83 -48 -176 -106z"/>
<path d="M1092 773 c2 -22 28 -42 161 -126 126 -79 161 -97 168 -86 5 8 9 19
8 24 0 9 -319 215 -334 215 -3 0 -5 -12 -3 -27z"/>
<path d="M568 612 c-76 -48 -138 -92 -138 -98 0 -16 145 -153 218 -207 81 -59
234 -147 257 -147 23 0 176 88 257 147 73 54 218 192 218 207 0 6 -63 50 -140
99 l-140 87 -198 -1 -197 -1 -137 -86z m192 -137 c0 -30 -3 -55 -7 -55 -5 0
-6 23 -5 50 4 45 2 50 -15 44 -15 -5 -15 -4 -3 5 26 19 30 13 30 -44z m63 36
c-6 -23 21 -35 37 -16 7 8 8 20 4 26 -4 8 -3 9 4 5 16 -9 15 -33 0 -38 -9 -3
-8 -9 5 -22 9 -10 17 -19 17 -21 0 -9 -33 -35 -45 -35 -22 0 -45 29 -38 48 6
14 8 13 13 -8 4 -16 13 -25 25 -25 30 0 31 33 2 44 -30 12 -41 27 -33 46 8 21
15 18 9 -4z m108 -27 c-4 -52 10 -74 34 -54 18 15 20 70 3 90 -11 12 -10 12 5
1 32 -25 14 -111 -23 -111 -13 0 -40 42 -40 63 0 16 17 57 23 57 1 0 1 -21 -2
-46z m109 27 c-15 -28 -12 -67 5 -81 24 -20 38 2 33 54 -3 40 -1 44 9 29 17
-23 16 -54 -3 -81 -18 -26 -27 -27 -48 -6 -19 18 -21 75 -4 92 17 17 20 15 8
-7z"/>
</g>
</svg>
